<mxfile host="app.diagrams.net" modified="2022-10-01T23:49:32.798Z" agent="5.0 (Macintosh; Intel Mac OS X 10_15_7) AppleWebKit/537.36 (KHTML, like Gecko) Chrome/105.0.0.0 Safari/537.36" etag="ufM8wYrlen9fwa_dCpHX" version="20.2.5" type="github">
  <diagram id="VH0NiKDcuZNilybEYqnM" name="Page-1">
    <mxGraphModel dx="1455" dy="863" grid="1" gridSize="10" guides="1" tooltips="1" connect="1" arrows="1" fold="1" page="1" pageScale="1" pageWidth="850" pageHeight="1100" math="0" shadow="0">
      <root>
        <mxCell id="0" />
        <mxCell id="1" parent="0" />
        <mxCell id="j9uIq2QjNMx6r6tdmkos-1" value="Usuario" style="swimlane;whiteSpace=wrap" vertex="1" parent="1">
          <mxGeometry x="164.5" y="128" width="280" height="492" as="geometry" />
        </mxCell>
        <mxCell id="j9uIq2QjNMx6r6tdmkos-2" value="" style="ellipse;shape=startState;fillColor=#000000;strokeColor=#ff0000;" vertex="1" parent="j9uIq2QjNMx6r6tdmkos-1">
          <mxGeometry x="100" y="40" width="30" height="30" as="geometry" />
        </mxCell>
        <mxCell id="j9uIq2QjNMx6r6tdmkos-3" value="" style="edgeStyle=elbowEdgeStyle;elbow=horizontal;verticalAlign=bottom;endArrow=open;endSize=8;strokeColor=#FF0000;endFill=1;rounded=0" edge="1" parent="j9uIq2QjNMx6r6tdmkos-1" source="j9uIq2QjNMx6r6tdmkos-2" target="j9uIq2QjNMx6r6tdmkos-4">
          <mxGeometry x="100" y="40" as="geometry">
            <mxPoint x="115" y="110" as="targetPoint" />
          </mxGeometry>
        </mxCell>
        <mxCell id="j9uIq2QjNMx6r6tdmkos-4" value="Ingresa al portal" style="" vertex="1" parent="j9uIq2QjNMx6r6tdmkos-1">
          <mxGeometry x="60" y="110" width="110" height="50" as="geometry" />
        </mxCell>
        <mxCell id="j9uIq2QjNMx6r6tdmkos-5" value="Portal SIPPASE" style="swimlane;whiteSpace=wrap" vertex="1" parent="1">
          <mxGeometry x="444.5" y="128" width="280" height="492" as="geometry" />
        </mxCell>
        <mxCell id="j9uIq2QjNMx6r6tdmkos-6" value="ingresa a la &#xa;seccion de ayuda" style="" vertex="1" parent="j9uIq2QjNMx6r6tdmkos-5">
          <mxGeometry x="85.5" y="110" width="110" height="50" as="geometry" />
        </mxCell>
        <mxCell id="j9uIq2QjNMx6r6tdmkos-7" value="Modulo de ayuda" style="swimlane;whiteSpace=wrap" vertex="1" parent="1">
          <mxGeometry x="724.5" y="128" width="280" height="492" as="geometry" />
        </mxCell>
        <mxCell id="j9uIq2QjNMx6r6tdmkos-8" value="Se espera que el&#xa;sistema grafique&#xa;un mapa con la&#xa;informacion de juzgados&#xa;y entidades" style="" vertex="1" parent="j9uIq2QjNMx6r6tdmkos-7">
          <mxGeometry x="85.5" y="95" width="154.5" height="88" as="geometry" />
        </mxCell>
        <mxCell id="j9uIq2QjNMx6r6tdmkos-9" value="Se grafica el mapa&#xa;con la informaciÃ³n de la&#xa;BD" style="" vertex="1" parent="j9uIq2QjNMx6r6tdmkos-7">
          <mxGeometry x="85.5" y="259" width="154.5" height="88" as="geometry" />
        </mxCell>
        <mxCell id="j9uIq2QjNMx6r6tdmkos-10" value="" style="ellipse;shape=endState;fillColor=#000000;strokeColor=#ff0000" vertex="1" parent="j9uIq2QjNMx6r6tdmkos-7">
          <mxGeometry x="141.5" y="432" width="30" height="30" as="geometry" />
        </mxCell>
        <mxCell id="j9uIq2QjNMx6r6tdmkos-11" value="" style="endArrow=classic;html=1;rounded=0;exitX=0.461;exitY=0.985;exitDx=0;exitDy=0;exitPerimeter=0;" edge="1" parent="j9uIq2QjNMx6r6tdmkos-7" source="j9uIq2QjNMx6r6tdmkos-9" target="j9uIq2QjNMx6r6tdmkos-10">
          <mxGeometry width="50" height="50" relative="1" as="geometry">
            <mxPoint x="25.5" y="392.14" as="sourcePoint" />
            <mxPoint x="156.5999999999999" y="429.0000000000002" as="targetPoint" />
          </mxGeometry>
        </mxCell>
        <mxCell id="j9uIq2QjNMx6r6tdmkos-12" value="" style="endArrow=classic;html=1;rounded=0;exitX=0.986;exitY=0.54;exitDx=0;exitDy=0;exitPerimeter=0;entryX=-0.018;entryY=0.5;entryDx=0;entryDy=0;entryPerimeter=0;" edge="1" parent="1" source="j9uIq2QjNMx6r6tdmkos-4" target="j9uIq2QjNMx6r6tdmkos-6">
          <mxGeometry width="50" height="50" relative="1" as="geometry">
            <mxPoint x="380" y="270" as="sourcePoint" />
            <mxPoint x="470" y="263" as="targetPoint" />
          </mxGeometry>
        </mxCell>
        <mxCell id="j9uIq2QjNMx6r6tdmkos-13" value="Base de datos" style="swimlane;whiteSpace=wrap" vertex="1" parent="1">
          <mxGeometry x="1004.5" y="128" width="280" height="492" as="geometry" />
        </mxCell>
        <mxCell id="j9uIq2QjNMx6r6tdmkos-14" value="se consulta sobre&#xa;las direcciones" style="" vertex="1" parent="j9uIq2QjNMx6r6tdmkos-13">
          <mxGeometry x="85" y="110" width="110" height="50" as="geometry" />
        </mxCell>
        <mxCell id="j9uIq2QjNMx6r6tdmkos-15" value="Se procesa y&#xa;retorna los datos" style="" vertex="1" parent="j9uIq2QjNMx6r6tdmkos-13">
          <mxGeometry x="85" y="272" width="110" height="50" as="geometry" />
        </mxCell>
        <mxCell id="j9uIq2QjNMx6r6tdmkos-16" value="" style="endArrow=classic;html=1;rounded=0;exitX=0.464;exitY=1.07;exitDx=0;exitDy=0;exitPerimeter=0;entryX=0.464;entryY=0;entryDx=0;entryDy=0;entryPerimeter=0;" edge="1" parent="j9uIq2QjNMx6r6tdmkos-13" source="j9uIq2QjNMx6r6tdmkos-14" target="j9uIq2QjNMx6r6tdmkos-15">
          <mxGeometry width="50" height="50" relative="1" as="geometry">
            <mxPoint x="89.99649999999997" y="222.03999999999996" as="sourcePoint" />
            <mxPoint x="216.01" y="222" as="targetPoint" />
          </mxGeometry>
        </mxCell>
        <mxCell id="j9uIq2QjNMx6r6tdmkos-17" value="" style="endArrow=classic;html=1;rounded=0;exitX=1;exitY=0.53;exitDx=0;exitDy=0;exitPerimeter=0;entryX=-0.018;entryY=0.47;entryDx=0;entryDy=0;entryPerimeter=0;" edge="1" parent="1" source="j9uIq2QjNMx6r6tdmkos-6" target="j9uIq2QjNMx6r6tdmkos-8">
          <mxGeometry width="50" height="50" relative="1" as="geometry">
            <mxPoint x="660" y="370" as="sourcePoint" />
            <mxPoint x="710" y="320" as="targetPoint" />
          </mxGeometry>
        </mxCell>
        <mxCell id="j9uIq2QjNMx6r6tdmkos-18" value="" style="endArrow=classic;html=1;rounded=0;exitX=0.997;exitY=0.455;exitDx=0;exitDy=0;exitPerimeter=0;entryX=0.005;entryY=0.5;entryDx=0;entryDy=0;entryPerimeter=0;" edge="1" parent="1" source="j9uIq2QjNMx6r6tdmkos-8" target="j9uIq2QjNMx6r6tdmkos-14">
          <mxGeometry width="50" height="50" relative="1" as="geometry">
            <mxPoint x="970" y="290.14" as="sourcePoint" />
            <mxPoint x="1137.219" y="290" as="targetPoint" />
          </mxGeometry>
        </mxCell>
        <mxCell id="j9uIq2QjNMx6r6tdmkos-19" value="" style="endArrow=classic;html=1;rounded=0;exitX=-0.014;exitY=0.51;exitDx=0;exitDy=0;exitPerimeter=0;entryX=1.01;entryY=0.438;entryDx=0;entryDy=0;entryPerimeter=0;" edge="1" parent="1" source="j9uIq2QjNMx6r6tdmkos-15" target="j9uIq2QjNMx6r6tdmkos-9">
          <mxGeometry width="50" height="50" relative="1" as="geometry">
            <mxPoint x="1065.8899999999999" y="480.14" as="sourcePoint" />
            <mxPoint x="1233.109" y="480" as="targetPoint" />
          </mxGeometry>
        </mxCell>
      </root>
    </mxGraphModel>
  </diagram>
</mxfile>
